<svg xmlns="http://www.w3.org/2000/svg" viewBox="0 0 108 108">
  <defs>
    <linearGradient id="g" x1="10" y1="8" x2="98" y2="100" gradientUnits="userSpaceOnUse">
      <stop stop-color="#171717"/>
      <stop offset=".46" stop-color="#2a2720"/>
      <stop offset="1" stop-color="#d6a84f"/>
    </linearGradient>
  </defs>
  <rect width="108" height="108" rx="24" fill="url(#g)"/>
  <rect x="31" y="31" width="46" height="46" rx="8" fill="#fff" opacity=".14"/>
  <path fill="#fff" d="M43.24 51.58c2.88 5.66 7.52 10.3 13.18 13.18l4.4-4.4c.54-.54 1.34-.72 2.04-.48 2.24.74 4.66 1.14 7.14 1.14 1.1 0 2 .9 2 2V70c0 1.1-.9 2-2 2-18.78 0-34-15.22-34-34 0-1.1.9-2 2-2h7c1.1 0 2 .9 2 2 0 2.5.4 4.9 1.14 7.14.22.7.06 1.48-.5 2.04l-4.4 4.4Z"/>
</svg>
